<svg xmlns="http://www.w3.org/2000/svg" viewBox="0 0 448 512"><!-- Database icon adapted from Font Awesome (Commercial License), with an upward arrow to suggest loading FROM the database. --><path d="M448 80v48c0 44.2-100.3 80-224 80S0 172.2 0 128V80C0 35.8 100.3 0 224 0S448 35.8 448 80zM393.2 214.7c20.8-7.4 39.9-16.9 54.8-28.6V288c0 44.2-100.3 80-224 80S0 332.2 0 288V186.1c14.9 11.8 34 21.2 54.8 28.6C99.7 230.7 159.5 240 224 240s124.3-9.3 169.2-25.3z"/><path d="M224 340 L160 404 L208 404 L208 480 L240 480 L240 404 L288 404 Z"/></svg>
